<svg xmlns="http://www.w3.org/2000/svg" width="300" height="300" viewBox="0 0 300 300">
    <defs>
        <linearGradient id="gzl5uhw02a" y1=".604" x2=".924" y2=".187" gradientUnits="objectBoundingBox">
            <stop offset="0" stop-color="#a8efc5"/>
            <stop offset="1" stop-color="#a8efc5" stop-opacity="0"/>
        </linearGradient>
    </defs>
    <path d="M57.763 168.289a15.789 15.789 0 1 0 15.789 15.789 15.836 15.836 0 0 0-15.789-15.789zm0 63.158a15.789 15.789 0 1 0 15.789 15.789 15.836 15.836 0 0 0-15.789-15.789zm0-126.316a15.789 15.789 0 1 0 15.789 15.789 15.836 15.836 0 0 0-15.789-15.788zm-47.368 7.895a7.895 7.895 0 1 0 0 15.789 7.895 7.895 0 1 0 0-15.789zm47.368-71.052a15.789 15.789 0 1 0 15.79 15.789 15.836 15.836 0 0 0-15.79-15.789zm236.842 86.842a7.895 7.895 0 1 0-7.895-7.895 7.818 7.818 0 0 0 7.895 7.895zM184.079 73.553a15.789 15.789 0 1 0-15.789-15.789 15.836 15.836 0 0 0 15.789 15.789zm0-55.263a7.818 7.818 0 0 0 7.895-7.895 7.895 7.895 0 1 0-15.789 0 7.818 7.818 0 0 0 7.894 7.894zM10.395 176.184a7.895 7.895 0 1 0 0 15.789 7.895 7.895 0 1 0 0-15.789zm110.526 110.527a7.895 7.895 0 1 0 7.895 7.895 7.818 7.818 0 0 0-7.895-7.895zm0-268.421a7.818 7.818 0 0 0 7.895-7.895 7.895 7.895 0 1 0-15.789 0 7.818 7.818 0 0 0 7.894 7.894zm0 55.263a15.789 15.789 0 1 0-15.789-15.789 15.836 15.836 0 0 0 15.789 15.789zm0 86.842a23.684 23.684 0 1 0 23.684 23.684 23.652 23.652 0 0 0-23.684-23.684zm126.316 7.895a15.789 15.789 0 1 0 15.789 15.789 15.836 15.836 0 0 0-15.789-15.79zm0 63.158a15.789 15.789 0 1 0 15.789 15.789 15.836 15.836 0 0 0-15.789-15.79zm0-126.316a15.789 15.789 0 1 0 15.789 15.789 15.836 15.836 0 0 0-15.789-15.789zm0-63.158a15.789 15.789 0 1 0 15.789 15.789 15.836 15.836 0 0 0-15.789-15.789zm47.368 134.211a7.895 7.895 0 1 0 7.895 7.895 7.818 7.818 0 0 0-7.895-7.896zm-110.526 55.262a15.789 15.789 0 1 0 15.789 15.789 15.836 15.836 0 0 0-15.789-15.789zm0 55.263a7.895 7.895 0 1 0 7.895 7.895 7.818 7.818 0 0 0-7.895-7.894zM120.921 97.237a23.684 23.684 0 1 0 23.684 23.684 23.652 23.652 0 0 0-23.684-23.684zm0 134.211a15.789 15.789 0 1 0 15.789 15.789 15.836 15.836 0 0 0-15.789-15.79zm63.158-71.053a23.684 23.684 0 1 0 23.684 23.684 23.652 23.652 0 0 0-23.684-23.684zm0-63.158a23.684 23.684 0 1 0 23.684 23.684 23.652 23.652 0 0 0-23.684-23.684z" transform="translate(-2.5 -2.5)" style="fill:url(#gzl5uhw02a)"/>
</svg>
