<svg xmlns="http://www.w3.org/2000/svg" width="283.612" height="299.998" viewBox="0 0 283.612 299.998">
    <defs>
        <linearGradient id="0nc4kx75xa" x1=".065" y1=".945" x2=".934" y2=".07" gradientUnits="objectBoundingBox">
            <stop offset="0" stop-color="#ace7ff"/>
            <stop offset="1" stop-color="#ace7ff" stop-opacity="0"/>
        </linearGradient>
    </defs>
    <path d="M19.5 93.407a7.035 7.035 0 0 1-3.5-6.091V38.449c0-.1.032-.187.037-.279a8.158 8.158 0 0 1 .16-1.243c.037-.155.059-.311.1-.466a6.857 6.857 0 0 1 .6-1.441c.037-.064.075-.123.107-.187a8 8 0 0 1 .918-1.211c.117-.123.246-.23.368-.343a7.226 7.226 0 0 1 .95-.729c.1-.059.16-.139.251-.193L61.651 7.94a6.99 6.99 0 0 1 7 0l42.139 24.423c.091.054.149.123.234.177a6.61 6.61 0 0 1 .976.76c.117.107.246.209.352.327a6.682 6.682 0 0 1 .939 1.232c.032.054.059.1.1.15a6.749 6.749 0 0 1 .6 1.457 4.292 4.292 0 0 1 .1.466 6.6 6.6 0 0 1 .16 1.243c0 .1.037.188.037.279v17.4h86.994v-17.4c0-.1.032-.182.037-.279a6.672 6.672 0 0 1 .171-1.254c.032-.15.059-.305.1-.455a7.029 7.029 0 0 1 .6-1.446 4.31 4.31 0 0 0 .107-.182 7.389 7.389 0 0 1 .918-1.205c.117-.123.245-.23.368-.348a6.571 6.571 0 0 1 .95-.729c.1-.059.161-.134.251-.193l42.16-24.417a6.989 6.989 0 0 1 7 0l42.144 24.417c.1.059.176.145.267.209a7.447 7.447 0 0 1 .9.7 4.71 4.71 0 0 1 .411.386 6.743 6.743 0 0 1 .838 1.1 4.014 4.014 0 0 1 .23.386 7.034 7.034 0 0 1 .544 1.307c.054.171.08.343.118.525a6.615 6.615 0 0 1 .154 1.162c0 .107.043.209.043.316V87.3a7.042 7.042 0 0 1-3.5 6.091l-38.643 22.4v82.4l38.643 22.4c.107.059.182.155.288.214a7.361 7.361 0 0 1 .87.675c.149.134.3.262.438.407a6.544 6.544 0 0 1 .8 1.055c.1.15.187.3.272.466a7.789 7.789 0 0 1 .523 1.264c.054.176.085.354.123.536a7.126 7.126 0 0 1 .154 1.157c0 .107.043.209.043.316v48.856a7.042 7.042 0 0 1-3.5 6.091l-42.144 24.428c-.1.059-.2.069-.288.117a7.45 7.45 0 0 1-1.126.471 4.476 4.476 0 0 1-.459.139 6.847 6.847 0 0 1-1.6.209h-.043a7 7 0 0 1-1.654-.22c-.123-.026-.24-.08-.369-.112a6.988 6.988 0 0 1-1.259-.52c-.064-.037-.144-.054-.208-.091L204.8 281.627a7.036 7.036 0 0 1-3.5-6.091v-17.394h-86.986v17.394a7.041 7.041 0 0 1-3.5 6.091l-42.14 24.428a2.284 2.284 0 0 1-.294.118 7 7 0 0 1-1.121.471 4.616 4.616 0 0 1-.459.139 6.883 6.883 0 0 1-1.6.209h-.043a7 7 0 0 1-1.655-.219c-.123-.032-.24-.081-.368-.113a6.982 6.982 0 0 1-1.26-.519c-.069-.038-.144-.049-.213-.091l-42.154-24.428a7.035 7.035 0 0 1-3.5-6.091v-48.857c0-.1.037-.187.037-.289a8.088 8.088 0 0 1 .16-1.237c.037-.161.059-.316.1-.471a7.134 7.134 0 0 1 .6-1.446c.037-.059.069-.113.1-.171a7.03 7.03 0 0 1 .929-1.216c.107-.118.235-.219.352-.326a6.092 6.092 0 0 1 .982-.756c.085-.059.139-.123.23-.176l38.648-22.4V115.8L19.5 93.407zm45.646 149.585 28.144-16.307-28.133-16.307-28.144 16.307 28.139 16.307zm35.147-192.356L72.154 66.943v32.619l28.139-16.307V50.636zm-42.154 48.92V66.943L30.005 50.636V83.25l28.133 16.3zm7.013-77.409L37.008 38.454l28.138 16.307L93.29 38.449l-28.139-16.3zm185.292 220.845 28.144-16.307-28.139-16.307-28.144 16.307 28.139 16.307zm-7-176.044-28.136-16.307v32.614l28.134 16.307V66.948zm7.013-44.8L222.31 38.459l28.139 16.307 28.144-16.312-28.139-16.3zm35.136 28.483-28.147 16.312v32.619l28.145-16.312V50.636zm0 188.231-28.144 16.307v32.613l28.144-16.307v-32.608zM215.3 271.48l28.139 16.3v-32.6L215.3 238.867v32.613zm-14.01-27.4v-17.4c0-.1.032-.182.037-.279a6.794 6.794 0 0 1 .171-1.254c.032-.15.059-.306.1-.461a6.9 6.9 0 0 1 .6-1.446c.032-.059.069-.118.1-.177a7.7 7.7 0 0 1 .918-1.211c.118-.123.246-.23.379-.348a6.877 6.877 0 0 1 .944-.729c.091-.059.161-.134.251-.193l38.647-22.4V115.8l-38.649-22.4a7.035 7.035 0 0 1-3.5-6.091V69.916H114.3v17.395a7.042 7.042 0 0 1-3.5 6.091l-38.64 22.392v82.4l38.637 22.4c.086.054.144.123.229.171a7.412 7.412 0 0 1 .988.761c.117.107.24.209.352.326a6.676 6.676 0 0 1 .928 1.227c.038.059.07.112.1.171a7.029 7.029 0 0 1 .6 1.446 4.672 4.672 0 0 1 .1.471 6.541 6.541 0 0 1 .16 1.237c0 .1.037.188.037.289v17.4h86.989v-.011zm-100.99-5.219-28.14 16.307v32.614l28.14-16.307zm-42.154 48.91v-32.6l-28.135-16.31v32.614z" transform="translate(-16 -7)" style="fill:url(#0nc4kx75xa)"/>
</svg>
